<?xml version="1.0" encoding="UTF-8"?>
<svg id="katman_1" data-name="katman 1" xmlns="http://www.w3.org/2000/svg" version="1.1" viewBox="0 0 841.89 595.28">
  <defs>
    <style>
      .cls-1 {
        fill: #000;
        stroke-width: 0px;
      }
    </style>
  </defs>
  <path id="Path_3516" data-name="Path 3516" class="cls-1" d="M614.63,393.52c-14.93-.03-29.27,5.86-39.86,16.4-21.81,21.28-22.23,56.21-.95,78.02.31.32.63.64.95.95,10.6,10.51,24.93,16.41,39.86,16.4,30.86-.7,55.3-26.28,54.6-57.14-.68-29.87-24.73-53.92-54.6-54.6v-.03ZM614.63,480.44c-17.15,0-31.05-13.9-31.05-31.05s13.9-31.05,31.05-31.05,31.05,13.9,31.05,31.05-13.9,31.05-31.05,31.05h0Z"/>
  <path id="Path_3517" data-name="Path 3517" class="cls-1" d="M629.03,207.42c-2.26-2.09-5.23-3.24-8.31-3.22h-63.68c-6.84.03-12.38,5.57-12.41,12.41v101.8c.02,6.85,5.56,12.4,12.41,12.41h101.06c6.85-.02,12.4-5.56,12.41-12.41v-68.15c0-3.51-1.5-6.84-4.1-9.2l-37.38-33.65ZM645.66,306h-76.24v-77.09h46.35l29.81,26.82.09,50.28Z"/>
  <path id="Path_3518" data-name="Path 3518" class="cls-1" d="M311.44,393.52c-14.93-.03-29.27,5.86-39.86,16.4-21.81,21.28-22.23,56.21-.95,78.02.31.32.63.64.95.95,10.6,10.51,24.93,16.41,39.86,16.4,30.86-.7,55.3-26.28,54.6-57.14-.68-29.87-24.73-53.92-54.6-54.6v-.03ZM311.44,480.44c-17.15,0-31.05-13.9-31.05-31.05s13.9-31.05,31.05-31.05,31.05,13.9,31.05,31.05-13.9,31.05-31.05,31.05Z"/>
  <path id="Path_3519" data-name="Path 3519" class="cls-1" d="M228.62,408.78h-24.97v-33.02c0-6.85-5.56-12.41-12.41-12.41s-12.41,5.56-12.41,12.41v45.55c.02,6.85,5.56,12.4,12.41,12.41h37.38c6.86,0,12.41-5.56,12.41-12.41s-5.56-12.41-12.41-12.41v-.11Z"/>
  <path id="Path_3520" data-name="Path 3520" class="cls-1" d="M291.57,341.11c-.02-6.85-5.56-12.4-12.41-12.41h-150.6c-6.86,0-12.41,5.56-12.41,12.41s5.56,12.41,12.41,12.41h150.6c6.84.02,12.4-5.52,12.41-12.36,0-.02,0-.04,0-.06h0Z"/>
  <path id="Path_3521" data-name="Path 3521" class="cls-1" d="M153.75,296.3l150.6.85c6.83,0,12.4-5.47,12.53-12.3.13-6.79-5.28-12.4-12.07-12.52-.08,0-.15,0-.23,0l-150.6-.88c-6.86,0-12.41,5.56-12.41,12.41s5.56,12.41,12.41,12.41l-.23.03Z"/>
  <path id="Path_3522" data-name="Path 3522" class="cls-1" d="M179.09,239.93h150.6c6.86,0,12.41-5.56,12.41-12.41s-5.56-12.41-12.41-12.41h-150.6c-6.86,0-12.41,5.56-12.41,12.41s5.56,12.41,12.41,12.41h0Z"/>
  <path id="Path_3523" data-name="Path 3523" class="cls-1" d="M721.27,223.11l-88.91-73.62c-2.23-1.86-5.04-2.87-7.94-2.85h-104.54v-44.7c-.02-6.85-5.56-12.4-12.41-12.41H191.25c-6.85.02-12.4,5.56-12.41,12.41v90.87c0,6.85,5.56,12.41,12.41,12.41s12.41-5.56,12.41-12.41v-78.46h291.52v294.36h-101.8c-6.86,0-12.41,5.56-12.41,12.41s5.56,12.41,12.41,12.41h151.59c6.86,0,12.41-5.56,12.41-12.41s-5.56-12.41-12.41-12.41h-24.97v-237.26h100.1l80.94,67.04-.88,169.96h-12.92c-6.86,0-12.41,5.56-12.41,12.41s5.56,12.41,12.41,12.41h25.19c6.82.03,12.38-5.48,12.41-12.3h0l1-188.23c-.08-3.72-1.74-7.22-4.56-9.65h0Z"/>
</svg>